<svg viewBox="0 0 16.6667 18.1782" xmlns="http://www.w3.org/2000/svg" xmlns:xlink="http://www.w3.org/1999/xlink" width="16.666748" height="18.178223" fill="none" customFrame="#000000">
	<g id="Group">
		<path id="Vector" d="M8.82756 17.715L8.81839 17.7167L8.75923 17.7459L8.74256 17.7492L8.7309 17.7459L8.67173 17.7167C8.66284 17.7139 8.65617 17.7153 8.65173 17.7209L8.6484 17.7292L8.63423 18.0859L8.6384 18.1025L8.64673 18.1134L8.73339 18.175L8.7459 18.1784L8.75589 18.175L8.84256 18.1134L8.85256 18.1L8.8559 18.0859L8.84173 17.73C8.83951 17.7211 8.83478 17.7161 8.82756 17.715ZM9.0484 17.6209L9.03756 17.6225L8.8834 17.7L8.87506 17.7084L8.87256 17.7175L8.88756 18.0759L8.89173 18.0859L8.8984 18.0917L9.0659 18.1692C9.07645 18.172 9.08451 18.1698 9.09006 18.1625L9.0934 18.1509L9.06506 17.6392C9.06228 17.6292 9.05673 17.6231 9.0484 17.6209ZM8.45256 17.6225C8.44889 17.6203 8.4445 17.6196 8.44031 17.6205C8.43612 17.6214 8.43245 17.624 8.43006 17.6275L8.42506 17.6392L8.39673 18.1509C8.39728 18.1609 8.40201 18.1675 8.4109 18.1709L8.4234 18.1692L8.59089 18.0917L8.59923 18.085L8.60256 18.0759L8.61673 17.7175L8.61423 17.7075L8.6059 17.6992L8.45256 17.6225Z" fill-rule="nonzero" />
		<path id="Vector" d="M8.33309 0C12.9356 0 16.6664 3.73083 16.6664 8.33333C16.6664 12.9358 12.9356 16.6667 8.33309 16.6667C3.73059 16.6667 -0.000244141 12.9358 -0.000244141 8.33333C-0.000244141 3.73083 3.73059 0 8.33309 0ZM8.33309 1.66667C6.56498 1.66667 4.86929 2.36905 3.61904 3.61929C2.3688 4.86953 1.66642 6.56522 1.66642 8.33333C1.66642 10.1014 2.3688 11.7971 3.61904 13.0474C4.86929 14.2976 6.56498 15 8.33309 15C10.1012 15 11.7969 14.2976 13.0471 13.0474C14.2974 11.7971 14.9998 10.1014 14.9998 8.33333C14.9998 6.56522 14.2974 4.86953 13.0471 3.61929C11.7969 2.36905 10.1012 1.66667 8.33309 1.66667ZM8.33309 3.33333C8.5372 3.33336 8.7342 3.4083 8.88673 3.54393C9.03926 3.67956 9.13671 3.86646 9.16059 4.06917L9.16642 4.16667L9.16642 7.98833L11.4223 10.2442C11.5717 10.3941 11.6585 10.5954 11.6649 10.807C11.6714 11.0186 11.5971 11.2248 11.457 11.3836C11.317 11.5424 11.1218 11.6419 10.911 11.662C10.7003 11.6821 10.4897 11.6212 10.3223 11.4917L10.2439 11.4225L7.74392 8.9225C7.61441 8.79287 7.53122 8.62417 7.50726 8.4425L7.49976 8.33333L7.49976 4.16667C7.49976 3.94565 7.58755 3.73369 7.74383 3.57741C7.90011 3.42113 8.11207 3.33333 8.33309 3.33333Z" fill="rgb(138,138,138)" fill-rule="nonzero" />
	</g>
</svg>
