<svg viewBox="0 0 13.3333 13.2998" xmlns="http://www.w3.org/2000/svg" xmlns:xlink="http://www.w3.org/1999/xlink" width="13.333252" height="13.299805" fill="none" customFrame="#000000">
	<path id="Vector" d="M13.3333 6.66667C13.3333 2.98667 10.3467 0 6.66667 0C2.98667 0 0 2.98667 0 6.66667C0 9.89333 2.29333 12.58 5.33333 13.2L5.33333 8.66667L4 8.66667L4 6.66667L5.33333 6.66667L5.33333 5C5.33333 3.71333 6.38 2.66667 7.66667 2.66667L9.33333 2.66667L9.33333 4.66667L8 4.66667C7.63333 4.66667 7.33333 4.96667 7.33333 5.33333L7.33333 6.66667L9.33333 6.66667L9.33333 8.66667L7.33333 8.66667L7.33333 13.3C10.7 12.9667 13.3333 10.1267 13.3333 6.66667Z" fill="rgb(138,138,138)" fill-rule="nonzero" />
</svg>
