<svg viewBox="0 0 16 16" xmlns="http://www.w3.org/2000/svg" xmlns:xlink="http://www.w3.org/1999/xlink" width="16.000000" height="16.000000" fill="none">
	<rect id="mdi:instagram" width="16.000000" height="16.000000" x="0.000000" y="0.000000" fill="rgb(255,255,255)" fill-opacity="0" />
	<path id="Vector" d="M5.19992 1.3335L10.7999 1.3335C12.9333 1.3335 14.6666 3.06683 14.6666 5.20016L14.6666 10.8002C14.6666 11.8257 14.2592 12.8092 13.5341 13.5343C12.8089 14.2594 11.8254 14.6668 10.7999 14.6668L5.19992 14.6668C3.06659 14.6668 1.33325 12.9335 1.33325 10.8002L1.33325 5.20016C1.33325 4.17466 1.74063 3.19116 2.46577 2.46602C3.19091 1.74088 4.17441 1.3335 5.19992 1.3335ZM5.06659 2.66683C4.43007 2.66683 3.81962 2.91969 3.36953 3.36977C2.91944 3.81986 2.66659 4.43031 2.66659 5.06683L2.66659 10.9335C2.66659 12.2602 3.73992 13.3335 5.06659 13.3335L10.9333 13.3335C11.5698 13.3335 12.1802 13.0806 12.6303 12.6306C13.0804 12.1805 13.3333 11.57 13.3333 10.9335L13.3333 5.06683C13.3333 3.74016 12.2599 2.66683 10.9333 2.66683L5.06659 2.66683ZM11.4999 3.66683C11.7209 3.66683 11.9329 3.75463 12.0892 3.91091C12.2455 4.06719 12.3333 4.27915 12.3333 4.50016C12.3333 4.72118 12.2455 4.93314 12.0892 5.08942C11.9329 5.2457 11.7209 5.3335 11.4999 5.3335C11.2789 5.3335 11.0669 5.2457 10.9107 5.08942C10.7544 4.93314 10.6666 4.72118 10.6666 4.50016C10.6666 4.27915 10.7544 4.06719 10.9107 3.91091C11.0669 3.75463 11.2789 3.66683 11.4999 3.66683ZM7.99992 4.66683C8.88397 4.66683 9.73182 5.01802 10.3569 5.64314C10.9821 6.26826 11.3333 7.11611 11.3333 8.00016C11.3333 8.88422 10.9821 9.73206 10.3569 10.3572C9.73182 10.9823 8.88397 11.3335 7.99992 11.3335C7.11586 11.3335 6.26802 10.9823 5.6429 10.3572C5.01777 9.73206 4.66658 8.88422 4.66658 8.00016C4.66658 7.11611 5.01777 6.26826 5.6429 5.64314C6.26802 5.01802 7.11586 4.66683 7.99992 4.66683ZM7.99992 6.00016C7.46949 6.00016 6.96078 6.21088 6.5857 6.58595C6.21063 6.96102 5.99992 7.46973 5.99992 8.00016C5.99992 8.53059 6.21063 9.0393 6.5857 9.41438C6.96078 9.78945 7.46949 10.0002 7.99992 10.0002C8.53035 10.0002 9.03906 9.78945 9.41413 9.41438C9.7892 9.0393 9.99992 8.53059 9.99992 8.00016C9.99992 7.46973 9.7892 6.96102 9.41413 6.58595C9.03906 6.21088 8.53035 6.00016 7.99992 6.00016Z" fill="rgb(138,138,138)" fill-rule="nonzero" />
</svg>
