<svg viewBox="0 0 14 13.9995" xmlns="http://www.w3.org/2000/svg" xmlns:xlink="http://www.w3.org/1999/xlink" width="14.000000" height="13.999512" fill="none" customFrame="#000000">
	<path id="Vector" d="M3.13375 13.9997L0.23125 13.9997L0.23125 4.65281L3.13375 4.65281L3.13375 13.9997ZM1.68094 3.37781C0.752813 3.37781 0 2.60906 0 1.68094C0 0.753203 0.753203 2.22045e-16 1.68094 0C2.60867 0 3.36188 0.753203 3.36188 1.68094C3.36188 2.60906 2.60875 3.37781 1.68094 3.37781ZM13.9969 13.9997L11.1006 13.9997L11.1006 9.44969C11.1006 8.36531 11.0787 6.97469 9.59156 6.97469C8.0825 6.97469 7.85125 8.15281 7.85125 9.37156L7.85125 13.9997L4.95188 13.9997L4.95188 4.65281L7.73562 4.65281L7.73562 5.92781L7.77625 5.92781C8.16375 5.19344 9.11031 4.41844 10.5225 4.41844C13.46 4.41844 14 6.35281 14 8.86531L14 13.9997L13.9969 13.9997Z" fill="rgb(138,138,138)" fill-rule="nonzero" />
</svg>
