<svg viewBox="0 0 12.75 18.2905" xmlns="http://www.w3.org/2000/svg" xmlns:xlink="http://www.w3.org/1999/xlink" width="12.750000" height="18.290527" fill="none" customFrame="#000000">
	<g id="Group">
		<path id="Vector" d="M12 6.375C12 4.88316 11.4074 3.45242 10.3525 2.39752C9.29758 1.34263 7.86684 0.75 6.375 0.75C4.88316 0.75 3.45242 1.34263 2.39752 2.39752C1.34263 3.45242 0.75 4.88316 0.75 6.375C0.75 8.875 3.25 12.625 6.375 17C9.5 12.625 12 8.875 12 6.375Z" fill-rule="nonzero" stroke="rgb(138,138,138)" stroke-width="1.500000" />
		<path id="Vector" d="M8.14277 8.14277C7.67393 8.61161 7.03804 8.875 6.375 8.875C5.71196 8.875 5.07607 8.61161 4.60723 8.14277C4.13839 7.67393 3.875 7.03804 3.875 6.375C3.875 5.71196 4.13839 5.07607 4.60723 4.60723C5.07607 4.13839 5.71196 3.875 6.375 3.875C7.03804 3.875 7.67393 4.13839 8.14277 4.60723C8.61161 5.07607 8.875 5.71196 8.875 6.375C8.875 7.03804 8.61161 7.67393 8.14277 8.14277Z" fill-rule="nonzero" stroke="rgb(138,138,138)" stroke-width="1.300000" />
	</g>
</svg>
